<svg width="114" height="30" viewBox="0 0 114 30" fill="none" xmlns="http://www.w3.org/2000/svg">
<path d="M16.4858 2.46738V21.8686H12.5944V13.6133H4.28361V21.8686H0.39225V2.46738H4.28361V10.4447H12.5944V2.46738H16.4858ZM27.1536 22.1188C25.6712 22.1188 24.337 21.7945 23.1511 21.1459C21.9651 20.4788 21.0293 19.543 20.3437 18.3386C19.6766 17.1341 19.3431 15.7443 19.3431 14.1693C19.3431 12.5942 19.6859 11.2044 20.3715 9.99994C21.0757 8.79547 22.03 7.86896 23.2345 7.2204C24.4389 6.55331 25.7824 6.21976 27.2648 6.21976C28.7472 6.21976 30.0907 6.55331 31.2951 7.2204C32.4996 7.86896 33.4446 8.79547 34.1303 9.99994C34.8344 11.2044 35.1865 12.5942 35.1865 14.1693C35.1865 15.7443 34.8251 17.1341 34.1025 18.3386C33.3983 19.543 32.4347 20.4788 31.2117 21.1459C30.0073 21.7945 28.6546 22.1188 27.1536 22.1188ZM27.1536 18.7277C27.8578 18.7277 28.5156 18.5609 29.1271 18.2274C29.7571 17.8753 30.2574 17.3565 30.628 16.6708C30.9986 15.9852 31.1839 15.1514 31.1839 14.1693C31.1839 12.7054 30.7948 11.5843 30.0165 10.806C29.2568 10.0092 28.321 9.6108 27.2092 9.6108C26.0974 9.6108 25.1616 10.0092 24.4019 10.806C23.6606 11.5843 23.29 12.7054 23.29 14.1693C23.29 15.6331 23.6514 16.7635 24.3741 17.5603C25.1153 18.3386 26.0418 18.7277 27.1536 18.7277ZM43.9336 22.1188C42.6735 22.1188 41.5432 21.8964 40.5425 21.4517C39.5419 20.9884 38.7451 20.3676 38.1521 19.5894C37.5777 18.8111 37.2627 17.9494 37.2071 17.0044H41.1262C41.2004 17.5974 41.4876 18.0884 41.9879 18.4775C42.5067 18.8667 43.146 19.0613 43.9058 19.0613C44.647 19.0613 45.2214 18.913 45.6291 18.6165C46.0553 18.32 46.2684 17.9402 46.2684 17.4769C46.2684 16.9766 46.009 16.606 45.4901 16.3651C44.9898 16.1057 44.1837 15.8277 43.0719 15.5312C41.923 15.2533 40.978 14.9661 40.2368 14.6696C39.5141 14.3731 38.8841 13.9191 38.3467 13.3076C37.8278 12.6961 37.5684 11.8715 37.5684 10.8338C37.5684 9.98141 37.8093 9.20314 38.2911 8.49899C38.7914 7.79484 39.4956 7.23893 40.4036 6.83126C41.3301 6.4236 42.4141 6.21976 43.6556 6.21976C45.4901 6.21976 46.954 6.68302 48.0473 7.60953C49.1406 8.51752 49.7428 9.74978 49.854 11.3063H46.1294C46.0738 10.6948 45.8144 10.213 45.3511 9.86096C44.9064 9.49036 44.3042 9.30505 43.5444 9.30505C42.8403 9.30505 42.2936 9.43477 41.9045 9.69419C41.5339 9.95362 41.3486 10.315 41.3486 10.7782C41.3486 11.2971 41.608 11.6955 42.1269 11.9734C42.6457 12.2328 43.4518 12.5015 44.5451 12.7795C45.6569 13.0574 46.5741 13.3447 47.2968 13.6411C48.0195 13.9376 48.6403 14.4009 49.1591 15.0309C49.6965 15.6424 49.9745 16.4577 49.993 17.4769C49.993 18.3664 49.7428 19.1632 49.2425 19.8673C48.7607 20.5715 48.0566 21.1274 47.1301 21.535C46.2221 21.9242 45.1566 22.1188 43.9336 22.1188ZM57.0786 8.69356C57.579 7.9894 58.2646 7.4057 59.1355 6.94244C60.025 6.46066 61.0349 6.21976 62.1652 6.21976C63.4809 6.21976 64.6668 6.54404 65.723 7.1926C66.7978 7.84116 67.6409 8.76768 68.2524 9.97215C68.8824 11.1581 69.1975 12.5386 69.1975 14.1137C69.1975 15.6887 68.8824 17.0878 68.2524 18.3108C67.6409 19.5152 66.7978 20.451 65.723 21.1181C64.6668 21.7852 63.4809 22.1188 62.1652 22.1188C61.0349 22.1188 60.0342 21.8871 59.1633 21.4239C58.3109 20.9606 57.616 20.3769 57.0786 19.6728V29.2066H53.1873V6.46992H57.0786V8.69356ZM65.2227 14.1137C65.2227 13.1872 65.0281 12.3903 64.639 11.7233C64.2684 11.0376 63.7681 10.5188 63.1381 10.1667C62.5266 9.81464 61.8595 9.6386 61.1368 9.6386C60.4326 9.6386 59.7655 9.8239 59.1355 10.1945C58.524 10.5466 58.0237 11.0654 57.6346 11.7511C57.264 12.4367 57.0786 13.2427 57.0786 14.1693C57.0786 15.0958 57.264 15.9018 57.6346 16.5875C58.0237 17.2731 58.524 17.8012 59.1355 18.1718C59.7655 18.5239 60.4326 18.6999 61.1368 18.6999C61.8595 18.6999 62.5266 18.5146 63.1381 18.144C63.7681 17.7734 64.2684 17.2453 64.639 16.5597C65.0281 15.874 65.2227 15.0587 65.2227 14.1137ZM73.9987 4.63542C73.3131 4.63542 72.7386 4.42232 72.2754 3.99613C71.8306 3.5514 71.6083 3.00476 71.6083 2.3562C71.6083 1.70764 71.8306 1.17026 72.2754 0.744061C72.7386 0.299334 73.3131 0.0769707 73.9987 0.0769707C74.6843 0.0769707 75.2495 0.299334 75.6942 0.744061C76.1575 1.17026 76.3891 1.70764 76.3891 2.3562C76.3891 3.00476 76.1575 3.5514 75.6942 3.99613C75.2495 4.42232 74.6843 4.63542 73.9987 4.63542ZM75.9166 6.46992V21.8686H72.0252V6.46992H75.9166ZM84.2919 9.6664V17.1156C84.2919 17.6344 84.4123 18.0143 84.6532 18.2552C84.9127 18.4775 85.3389 18.5887 85.9318 18.5887H87.7385V21.8686H85.2925C82.0127 21.8686 80.3727 20.275 80.3727 17.0878V9.6664H78.5382V6.46992H80.3727V2.66195H84.2919V6.46992H87.7385V9.6664H84.2919ZM89.5368 14.1137C89.5368 12.5571 89.8425 11.1766 90.454 9.97215C91.084 8.76768 91.9272 7.84116 92.9834 7.1926C94.0582 6.54404 95.2534 6.21976 96.569 6.21976C97.7179 6.21976 98.7185 6.45139 99.5709 6.91465C100.442 7.3779 101.137 7.96161 101.656 8.66576V6.46992H105.575V21.8686H101.656V19.6172C101.155 20.3398 100.46 20.9421 99.5709 21.4239C98.7 21.8871 97.6901 22.1188 96.5412 22.1188C95.2441 22.1188 94.0582 21.7852 92.9834 21.1181C91.9272 20.451 91.084 19.5152 90.454 18.3108C89.8425 17.0878 89.5368 15.6887 89.5368 14.1137ZM101.656 14.1693C101.656 13.2242 101.47 12.4181 101.1 11.7511C100.729 11.0654 100.229 10.5466 99.5987 10.1945C98.9687 9.8239 98.2923 9.6386 97.5696 9.6386C96.847 9.6386 96.1799 9.81464 95.5684 10.1667C94.9569 10.5188 94.4566 11.0376 94.0674 11.7233C93.6968 12.3903 93.5115 13.1872 93.5115 14.1137C93.5115 15.0402 93.6968 15.8555 94.0674 16.5597C94.4566 17.2453 94.9569 17.7734 95.5684 18.144C96.1984 18.5146 96.8655 18.6999 97.5696 18.6999C98.2923 18.6999 98.9687 18.5239 99.5987 18.1718C100.229 17.8012 100.729 17.2823 101.1 16.6153C101.47 15.9296 101.656 15.1143 101.656 14.1693ZM113.267 1.29997V21.8686H109.375V1.29997H113.267Z" fill="#156C6D"/>
</svg>
